<?xml version="1.0" standalone="no"?><!DOCTYPE svg PUBLIC "-//W3C//DTD SVG 1.1//EN" "http://www.w3.org/Graphics/SVG/1.1/DTD/svg11.dtd"><svg t="1587892418132" class="icon" viewBox="0 0 1024 1024" version="1.1" xmlns="http://www.w3.org/2000/svg" p-id="2921" xmlns:xlink="http://www.w3.org/1999/xlink" width="200" height="200"><defs><style type="text/css"></style></defs><path d="M226.59174974 794.61955171A45.47442304 45.47442304 0 0 1 180.31952951 749.54402688a48.26671206 48.26671206 0 0 1 45.47442303-47.07001742h304.35951693a199.44922499 199.44922499 0 0 1 193.8646462-153.97480118 137.22106631 137.22106631 0 0 1 17.95043028 1.99449183v-319.11875923A115.68055057 115.68055057 0 0 0 626.28799616 116.4921875H260.0992195v442.77727865a19.5460239 19.5460239 0 0 1-39.88984499 0V121.67786733a112.09046436 112.09046436 0 0 0-79.77969 107.30368274v503.01094474A101.32020651 101.32020651 0 0 0 241.749891 834.50939594h302.36502434a188.67896636 188.67896636 0 0 1-13.96144586-39.88984423z m143.60344153-583.98733013h268.85755456a18.74822748 18.74822748 0 0 1 19.1471257 19.14712568 19.14712569 19.14712569 0 0 1-19.1471257 19.1471257H370.19519127a19.14712569 19.14712569 0 0 1-19.1471257-19.1471257 18.74822748 18.74822748 0 0 1 19.1471257-19.14712568z m0 75.39180659h239.33907a19.14712569 19.14712569 0 0 1 0 39.88984499h-239.33907a19.14712569 19.14712569 0 0 1 0-39.88984499z m0 75.39180736h139.61445711a19.14712569 19.14712569 0 0 1 19.14712569 19.14712569 18.74822748 18.74822748 0 0 1-19.14712569 19.14712493h-139.61445711a18.74822748 18.74822748 0 0 1-19.1471257-19.14712493 19.14712569 19.14712569 0 0 1 19.1471257-19.14712569z" p-id="2922"></path><path d="M724.01811567 588.38905328a159.55938 159.55938 0 1 0 159.55938 159.55937922 159.55938 159.55938 0 0 0-159.55938-159.55937922z m89.75215144 182.29659112h-68.61053316V834.50939594a19.94492212 19.94492212 0 0 1-19.94492288 19.94492288 20.3438211 20.3438211 0 0 1-19.94492211-19.94492288v-63.82375154h-71.00392396a19.94492212 19.94492212 0 0 1 0-39.88984499h71.00392396v-68.21163494a19.94492212 19.94492212 0 0 1 19.94492211-19.94492212 19.94492212 19.94492212 0 0 1 19.94492288 19.94492212v68.21163494h68.61053316a19.94492212 19.94492212 0 1 1 0 39.88984499z" p-id="2923"></path></svg>