<?xml version="1.0" standalone="no"?><!DOCTYPE svg PUBLIC "-//W3C//DTD SVG 1.1//EN" "http://www.w3.org/Graphics/SVG/1.1/DTD/svg11.dtd"><svg t="1588774173738" class="icon" viewBox="0 0 1024 1024" version="1.1" xmlns="http://www.w3.org/2000/svg" p-id="4493" xmlns:xlink="http://www.w3.org/1999/xlink" width="81" height="81"><defs><style type="text/css"></style></defs><path d="M773.688889 187.733333zM881.777778 187.733333l-113.777778-108.088889L739.555556 56.888889H204.8v85.333333H113.777778V967.111111h705.422222v-85.333333H910.222222V216.177778l-28.444444-28.444445z m-130.844445-51.2l68.266667 62.577778h-68.266667V136.533333z m17.066667 785.066667H164.977778V187.733333h39.822222v694.044445h563.2v39.822222z m91.022222-91.022222H256V102.4h443.733333v147.911111H859.022222v580.266667z" p-id="4494"></path><path d="M318.577778 699.733333h244.622222V540.444444H318.577778v159.288889z m51.2-108.088889H512v62.577778H369.777778v-62.577778zM625.777778 654.222222h142.222222v45.511111H625.777778v-45.511111zM625.777778 597.333333h142.222222v45.511111H625.777778v-45.511111zM625.777778 540.444444h142.222222v45.511112H625.777778v-45.511112zM329.955556 392.533333h438.044444v51.2H329.955556v-51.2zM329.955556 329.955556h438.044444v51.2H329.955556v-51.2zM329.955556 267.377778h438.044444v51.2H329.955556v-51.2z" p-id="4495"></path></svg>