<?xml version="1.0" standalone="no"?><!DOCTYPE svg PUBLIC "-//W3C//DTD SVG 1.1//EN" "http://www.w3.org/Graphics/SVG/1.1/DTD/svg11.dtd"><svg t="1587952089842" class="icon" viewBox="0 0 1024 1024" version="1.1" xmlns="http://www.w3.org/2000/svg" p-id="1715" xmlns:xlink="http://www.w3.org/1999/xlink" width="200" height="200"><defs><style type="text/css"></style></defs><path d="M51.2 114.687l0 818.627 921.6 0 0-818.627-921.6 0zM245.187 765.009l-96.993 0.205 0-96.625 96.993 0 0 96.42zM245.187 572.251l-96.993 0 0-96.379 96.993 0 0 96.379zM245.187 379.493l-96.993 0 0-96.707 96.993 0.287 0 96.42zM875.807 765.009l-533.627 0 0-48.21 533.586 0 0 48.21zM875.807 572.251l-533.627 0 0-48.169 533.586 0 0 48.169zM875.807 379.493l-533.627 0 0-48.21 533.586 0 0 48.21z" p-id="1716"></path></svg>