<?xml version="1.0" standalone="no"?><!DOCTYPE svg PUBLIC "-//W3C//DTD SVG 1.1//EN" "http://www.w3.org/Graphics/SVG/1.1/DTD/svg11.dtd"><svg t="1588773960084" class="icon" viewBox="0 0 1024 1024" version="1.1" xmlns="http://www.w3.org/2000/svg" p-id="2954" xmlns:xlink="http://www.w3.org/1999/xlink" width="81" height="81"><defs><style type="text/css"></style></defs><path d="M362.16832 463.488H197.7856c-53.85728 0-97.60256-43.74016-97.60256-97.59744V201.50784c0-53.85728 43.74528-97.60256 97.60256-97.60256h164.45952c53.78048 0 97.60256 43.74528 97.60256 97.60256v164.45952c-0.08192 53.78048-43.82208 97.52064-97.67936 97.52064M197.7856 155.26912c-25.44128 0-46.2336 20.7104-46.2336 46.2336v164.45952c0 25.44128 20.7104 46.23872 46.2336 46.23872h164.45952c25.44128 0 46.23872-20.7104 46.23872-46.23872v-164.4544c0-25.44128-20.7104-46.2336-46.23872-46.2336l-164.45952-0.00512z m606.25408 307.26144h-162.65216c-53.21216 0-96.57344-43.27936-96.57344-96.57344V203.30496c0-53.21216 43.27936-96.57856 96.57344-96.57856h162.73408c53.20704 0 96.57344 43.28448 96.57344 96.57856v162.72896c-0.0768 53.21216-43.3664 96.49664-96.65536 96.49664m-162.65216-304.97792c-25.17504 0-45.74208 20.49536-45.74208 45.7472V366.0288c0 25.17504 20.49024 45.7472 45.74208 45.7472h162.7392c25.17504 0 45.7472-20.49024 45.7472-45.7472V203.30496c0-25.17504-20.49536-45.7472-45.7472-45.7472h-162.7392z m-271.32928 741.1712H205.7472c-53.75488 0-97.5616-43.72992-97.5616-97.5616v-164.31104c0-53.74976 43.72992-97.55648 97.5616-97.55648h164.38784c53.75488 0 97.5616 43.71968 97.5616 97.55648v164.39296c-0.08192 53.75488-43.80672 97.47968-97.6384 97.47968M205.7472 590.6432c-25.43104 0-46.21312 20.70016-46.21312 46.208v164.39296c0 25.43104 20.70016 46.208 46.21312 46.208h164.38784c25.43104 0 46.21824-20.70016 46.21824-46.208v-164.39296c0-25.43104-20.70016-46.208-46.21824-46.208H205.7472z m315.9552 89.80992c11.63776-2.96448 23.05536-6.36416 34.688-8.7808 18.22208-3.84512 20.63872-12.84608 9.5488-26.78784-7.02464-8.7808-14.38208-17.23392-23.2704-27.66336l28.65152-38.75328c9.33376-12.6208 18.44224-25.24672 28.87168-39.52128 12.1856 9.10848 23.2704 17.67424 34.688 25.9072 17.66912 12.73344 29.63968 9.66144 38.528-10.75712 4.72064-10.86976 7.46496-22.61504 11.74528-35.89632 22.61504 0 45.77792-0.98816 68.82816 0.768 5.16096 0.44032 11.74528 9.77408 14.0544 16.24576 17.45408 47.96928 19.4304 48.62976 60.26752 16.79872 5.26848-4.06016 10.75712-7.79776 17.56672-12.6208 19.31776 25.9072 37.87264 50.93376 59.38688 79.69792-8.23296 6.58944-16.57344 11.8528-23.38304 18.6624-19.21024 19.10272-16.79872 27.66336 8.89344 34.36032 10.75712 2.85184 21.62688 5.48864 33.04448 8.34048v77.50144c-12.73344 3.61984-25.03168 6.36416-36.77696 10.6496-20.63872 7.46496-23.05536 19.87072-7.13216 34.36032 7.13216 6.4768 14.8224 12.40576 21.95456 18.33472-26.01472 25.03168-51.26656 49.39776-78.70976 75.74528-5.38112-4.82816-13.94176-12.73344-22.8352-20.31104-16.3584-13.94176-30.62784-8.56064-34.46784 12.84608-0.87552 5.16096-1.54112 10.42944-2.30912 15.5904-0.66048 4.38784-1.20832 8.89344-2.08384 14.92992h-77.28128c-2.41152-11.0848-4.38784-22.8352-7.46496-34.14016-4.38784-16.46592-14.26944-22.5024-30.18752-13.39392-14.26944 8.23296-28.31872 16.90624-44.67712 26.6752-19.65056-25.35936-39.52128-51.0464-60.15488-77.7216 8.23296-7.13216 15.81056-13.17376 22.8352-19.75808 16.57344-15.5904 14.26944-25.9072-7.68512-33.69984-11.19744-3.95264-22.8352-6.69696-35.12832-10.20928V680.448l-0.00512 0.00512m301.1072 37.43232c-0.32768-56.31488-45.66528-101.43232-101.53984-100.88448-56.09472 0.44032-100.55168 45.88544-100.224 102.31296 0.44032 56.20224 45.55776 100.77696 101.87264 100.55168 56.53504-0.32768 100.224-44.89728 99.8912-101.98016" p-id="2955"></path></svg>