<?xml version="1.0" standalone="no"?><!DOCTYPE svg PUBLIC "-//W3C//DTD SVG 1.1//EN" "http://www.w3.org/Graphics/SVG/1.1/DTD/svg11.dtd"><svg t="1588151631932" class="icon" viewBox="0 0 1024 1024" version="1.1" xmlns="http://www.w3.org/2000/svg" p-id="5188" xmlns:xlink="http://www.w3.org/1999/xlink" width="200" height="200"><defs><style type="text/css"></style></defs><path d="M202.994 845.929V169.04c0-32.508 26.368-58.875 58.875-58.875h500.262c32.507 0 58.875 26.367 58.875 58.875v443.914h58.875V169.041c0-65.016-52.735-117.75-117.75-117.75H261.869c-65.015 0-117.75 52.734-117.75 117.75V845.93c0 65.016 52.735 117.75 117.75 117.75h235.502v-58.875H261.87c-32.507 0-58.875-26.367-58.875-58.875z" p-id="5189"></path><path d="M718.064 404.543c0-16.254-13.364-29.257-29.257-29.257H335.193c-16.254 0-29.257 13.364-29.257 29.257 0 16.254 13.364 29.257 29.257 29.257h353.253c16.254 0 29.618-13.003 29.618-29.257zM327.969 522.294c-12.28 0-22.033 9.753-22.033 22.033 0 12.281 9.752 22.033 22.033 22.033h117.75c12.282 0 22.034-9.752 22.034-22.033 0-12.28-9.752-22.033-22.033-22.033H327.969zM688.446 227.917H335.193c-16.254 0-29.257 13.364-29.257 29.257 0 16.254 13.364 29.257 29.257 29.257h353.253c16.254 0 29.257-13.364 29.257-29.257 0.361-16.254-13.003-29.257-29.257-29.257zM533.853 522.294h-14.81c-12.28 0-22.033 9.753-22.033 22.033 0 12.281 9.753 22.033 22.033 22.033h14.81c12.28 0 22.033-9.752 22.033-22.033 0.36-12.28-9.753-22.033-22.033-22.033zM879.881 748.044c-26.006-43.344-25.645-44.067-25.645-44.067s-89.938 25.284-106.553-61.042H695.67s-14.448 86.326-106.193 60.681c-26.367 44.067-27.45 45.511-27.45 45.511s71.878 50.207 0 118.474l27.811 45.872s79.464-34.314 105.47 59.237h52.736s16.615-85.966 105.831-60.682c25.284-43.344 25.645-43.705 25.645-43.705s-67.544-58.153 0.361-120.28z m-159.288 120.28c-33.592 0-60.682-27.09-60.682-60.682s27.09-60.682 60.682-60.682c33.591 0 60.681 27.09 60.681 60.682 0 33.591-27.09 60.681-60.681 60.681z" p-id="5190"></path></svg>