<?xml version="1.0" standalone="no"?><!DOCTYPE svg PUBLIC "-//W3C//DTD SVG 1.1//EN" "http://www.w3.org/Graphics/SVG/1.1/DTD/svg11.dtd"><svg t="1588774234038" class="icon" viewBox="0 0 1024 1024" version="1.1" xmlns="http://www.w3.org/2000/svg" p-id="5352" xmlns:xlink="http://www.w3.org/1999/xlink" width="81" height="81"><defs><style type="text/css"></style></defs><path d="M341.333333 824.888889h682.666667v56.888889H341.333333v-56.888889z m198.826667-143.274667l-112.241778-110.535111-70.599111 188.558222 182.812445-78.023111zM900.408889 328.248889L784.497778 208.554667 448.739556 540.359111l120.376888 125.041778 331.264-337.180445h0.056889z m95.459555-91.392c-21.930667 23.438222-44.231111 46.563556-66.901333 69.319111l-121.315555-121.088 59.733333-59.818667s27.164444-25.770667 62.464 0c35.271111 25.884444 54.243556 50.944 54.243555 50.944s33.507556 37.233778 11.719112 60.586667l0.056888 0.056889z" p-id="5353"></path><path d="M142.222222 426.666667v-142.222223h56.888889v142.222223h142.222222v56.888889H199.111111v142.222222H142.222222v-142.222222H0v-56.888889h142.222222z" p-id="5354"></path></svg>