<?xml version="1.0" standalone="no"?><!DOCTYPE svg PUBLIC "-//W3C//DTD SVG 1.1//EN" "http://www.w3.org/Graphics/SVG/1.1/DTD/svg11.dtd"><svg t="1587952165886" class="icon" viewBox="0 0 1024 1024" version="1.1" xmlns="http://www.w3.org/2000/svg" p-id="3218" xmlns:xlink="http://www.w3.org/1999/xlink" width="200" height="200"><defs><style type="text/css"></style></defs><path d="M988.0576 716.1856h-404.7872c-9.216 0-16.6912-10.8544-16.6912-24.2176V634.88c0-13.312 7.424-24.2176 16.6912-24.2176h404.7872c9.2672 0 16.7424 10.9056 16.7424 24.2176v57.088c0 13.312-7.4752 24.1664-16.7424 24.1664z m0 144.384h-404.7872c-9.216 0-16.6912-10.8544-16.6912-24.2176V779.264c0-13.4656 7.424-24.2176 16.6912-24.2176h404.7872c9.2672 0 16.7424 10.8032 16.7424 24.2176v57.088c0 13.312-7.4752 24.2176-16.7424 24.2176z m0 144.2304h-404.7872c-9.216 0-16.6912-10.8544-16.6912-24.2176v-57.088c0-13.312 7.424-24.2176 16.6912-24.2176h404.7872c9.2672 0 16.7424 10.8544 16.7424 24.2176v57.088c0 13.3632-7.4752 24.2176-16.7424 24.2176z m-434.2272-457.5232h72.0896c3.1744-11.4688 4.8128-23.296 4.864-35.2256A134.7584 134.7584 0 0 0 480.768 378.368a135.168 135.168 0 0 0-118.272 118.4256 134.8096 134.8096 0 0 0 133.7344 150.016v-41.6768a57.6 57.6 0 0 1 57.6-57.856z" p-id="3219"></path><path d="M290.048 512.0512A206.3872 206.3872 0 0 1 496.128 305.8688a206.4896 206.4896 0 0 1 203.1104 241.408h189.952c2.56-27.648 2.048-55.552-1.536-83.0976l57.7024-44.6976a60.416 60.416 0 0 0 19.456-80.9472l-84.1216-145.8176a60.4672 60.4672 0 0 0-79.9744-23.552l-67.2768 27.4944a391.936 391.936 0 0 0-82.944-47.7184l-9.8304-72.192A60.2624 60.2624 0 0 0 580.4544 19.1488H411.904a60.0576 60.0576 0 0 0-60.2624 57.4976L341.7088 148.992a397.2096 397.2096 0 0 0-82.944 47.7184l-67.4304-27.4944a60.2624 60.2624 0 0 0-79.872 23.552L27.3408 338.7392A60.3136 60.3136 0 0 0 47.104 419.584l57.4464 44.6976a383.3856 383.3856 0 0 0 0 95.744l-57.6 44.4928a60.2624 60.2624 0 0 0-19.5584 80.9472l84.1216 145.8688c8.192 13.824 21.0944 23.9616 36.7104 28.16 14.4896 3.8912 29.9008 2.2016 43.1616-4.7616l67.3792-27.5456a396.288 396.288 0 0 0 82.944 47.7184l9.9328 72.2944c1.3824 32.256 27.9552 57.6512 60.2624 57.6h84.1216v-286.5152A206.336 206.336 0 0 1 290.048 512z" p-id="3220"></path></svg>