<?xml version="1.0" standalone="no"?><!DOCTYPE svg PUBLIC "-//W3C//DTD SVG 1.1//EN" "http://www.w3.org/Graphics/SVG/1.1/DTD/svg11.dtd"><svg t="1587966822181" class="icon" viewBox="0 0 1024 1024" version="1.1" xmlns="http://www.w3.org/2000/svg" p-id="2514" xmlns:xlink="http://www.w3.org/1999/xlink" width="200" height="200"><defs><style type="text/css"></style></defs><path d="M199.2 262.8V151.5c0-16.8 13.6-30.4 30.4-30.4h564.7c16.7 0 30.3 13.6 30.4 30.4v111.3h56.7v-138c0-33.5-27.3-60.9-60.7-60.9H203.3c-33.4 0-60.7 27.4-60.7 60.9v138h56.6z m625.5 487.6v121.2c-0.1 16.8-13.6 30.4-30.4 30.4H229.6c-16.7-0.1-30.3-13.6-30.4-30.4V750.4h-56.6v147.9c0 33.5 27.3 60.9 60.7 60.9h617.3c33.4 0 60.7-27.4 60.7-60.9V750.4h-56.6z m-550.2-90.2H217V442.7c-21.1 19.7-45.9 34.3-74.4 43.7V434c15-4.9 31.3-14.3 49-28 17.6-13.8 29.7-29.8 36.3-48.2h46.7l-0.1 302.4zM596 606.6v53.6H394.1c2.2-20.3 8.8-39.5 19.7-57.6 10.9-18.2 32.5-42.2 64.7-72.2 26-24.2 41.9-40.7 47.8-49.3 7.9-11.9 11.9-23.7 11.9-35.3 0-12.8-3.5-22.7-10.4-29.7-6.9-6.9-16.4-10.4-28.6-10.4-12 0-21.6 3.6-28.7 10.9-7.1 7.3-11.2 19.3-12.3 36.2l-57.4-5.7c3.4-31.8 14.2-54.6 32.2-68.4 18-13.8 40.6-20.8 67.6-20.8 29.6 0 52.9 8 69.9 24 16.9 16 25.4 35.9 25.4 59.7 0 13.2-2.4 26.4-7.3 38.7-4.9 12.3-12.5 25.1-23 38.5-7 8.9-19.5 21.7-37.7 38.4-18.1 16.7-29.6 27.8-34.5 33.2-4.5 4.9-8.4 10.3-11.8 16l114.4 0.2z m85.7-26.3l55.7-6.8c1.8 14.2 6.6 25.1 14.3 32.6 7.8 7.5 17.2 11.3 28.3 11.3 11.9 0 21.9-4.5 30-13.5 8.1-9.1 12.2-21.2 12.2-36.6 0-14.5-3.9-26-11.7-34.5-7.8-8.5-17.3-12.8-28.5-12.8-7.4 0-16.2 1.4-26.5 4.3l6.4-47c15.6 0.4 27.4-3 35.6-10.2 8.2-7.2 12.3-16.7 12.3-28.7 0-10.1-3-18.2-9-24.2s-14-9-24-9c-9.8 0-18.2 3.4-25.2 10.3-6.9 6.8-11.2 16.8-12.7 30l-53.1-9c3.7-18.2 9.3-32.8 16.7-43.7 7.5-10.9 17.8-19.4 31.2-25.6 13.3-6.2 28.2-9.3 44.8-9.3 28.3 0 50.9 9 68.1 27.1 14 14.8 21.1 31.5 21.1 50.1 0 26.4-14.4 47.5-43.3 63.2 17.2 3.7 31 12 41.3 24.9 10.3 12.9 15.5 28.4 15.5 46.6 0 26.4-9.6 49-28.9 67.6-19.3 18.6-43.2 27.9-72 27.9-27.2 0-49.7-7.8-67.6-23.5-17.7-15.7-28.1-36.2-31-61.5z" p-id="2515"></path></svg>