<?xml version="1.0" standalone="no"?><!DOCTYPE svg PUBLIC "-//W3C//DTD SVG 1.1//EN" "http://www.w3.org/Graphics/SVG/1.1/DTD/svg11.dtd"><svg t="1587952126436" class="icon" viewBox="0 0 1024 1024" version="1.1" xmlns="http://www.w3.org/2000/svg" p-id="2478" xmlns:xlink="http://www.w3.org/1999/xlink" width="200" height="200"><defs><style type="text/css"></style></defs><path d="M840.92928 95.47776a145.29024 145.29024 0 0 0-64.17408 14.85824C704.15872 56.59136 614.37952 24.74496 517.12 24.74496c-55.2704 0-108.12928 10.2912-156.8 29.0304-16.89088 6.5024-37.36576 27.776-24.36608 58.73664 14.42304 34.33472 56.17152 19.23584 56.17152 19.23584a353.05984 353.05984 0 0 1 125.30176-22.82496 351.89248 351.89248 0 0 1 196.90496 59.93472 145.2032 145.2032 0 0 0-19.328 72.54016c0 80.5888 65.3312 145.92 145.92 145.92s145.92-65.3312 145.92-145.92c0.00512-80.5888-65.32608-145.92-145.91488-145.92z m0 210.77504c-35.81952 0-64.85504-29.03552-64.85504-64.85504s29.03552-64.85504 64.85504-64.85504 64.85504 29.03552 64.85504 64.85504-29.03552 64.85504-64.85504 64.85504zM953.4208 442.31168c-1.02912-18.0736-15.02208-44.07296-48.47616-41.15456-37.09952 3.23072-35.49184 47.60064-35.49184 47.60064a353.024 353.024 0 0 1-16.57856 126.27968c-29.37856 91.48928-92.52864 162.68288-171.21792 204.3904l-31.872 14.37696 0.01536 0.1024c-23.04512-50.26816-73.76384-85.20192-132.67968-85.20192-80.5888 0-145.92 65.3312-145.92 145.92s65.3312 145.92 145.92 145.92c73.19552 0 133.79584-53.89824 144.29696-124.17024v0.00512c44.288-13.24032 92.84608-42.55232 92.84608-42.55232 81.90464-52.864 146.72384-133.2992 178.85184-233.35424a435.28192 435.28192 0 0 0 20.30592-158.16192zM517.12 919.48544c-35.81952 0-64.85504-29.03552-64.85504-64.85504s29.03552-64.85504 64.85504-64.85504 64.85504 29.03552 64.85504 64.85504-29.03552 64.85504-64.85504 64.85504zM317.84448 754.56a353.08544 353.08544 0 0 1-89.7792-90.33728c-54.4256-79.19616-72.13568-172.6976-57.01632-260.46464l4.0704-17.05984c4.33152 0.38912 8.704 0.61952 13.1328 0.61952 80.5888 0 145.92-65.3312 145.92-145.92s-65.3312-145.92-145.92-145.92-145.92 65.3312-145.92 145.92c0 46.4128 21.69344 87.7312 55.47008 114.4576-10.07104 36.34176-14.19776 72.08448-14.19776 72.08448-8.25856 97.13152 15.744 197.6064 75.264 284.21632 31.30368 45.55264 69.72416 83.28704 112.73216 112.78336 14.92992 10.24 44.0576 15.06304 62.208-13.18912 20.13184-31.32928-15.96416-57.1904-15.96416-57.1904zM188.25728 176.54272c35.81952 0 64.85504 29.03552 64.85504 64.85504s-29.03552 64.85504-64.85504 64.85504-64.85504-29.03552-64.85504-64.85504 29.03552-64.85504 64.85504-64.85504z" fill="" p-id="2479"></path></svg>